HIERARCHY
ROOT root
{
	OFFSET 0.000000 0.000000 0.000000
	CHANNELS 6 Xposition Yposition Zposition Zrotation Yrotation Xrotation
	JOINT lhip
	{
		OFFSET 0.058581 -0.082280 -0.017664
		CHANNELS 3 Zrotation Yrotation Xrotation
		JOINT lknee
		{
			OFFSET 0.043451 -0.386469 0.008037
			CHANNELS 3 Zrotation Yrotation Xrotation
			JOINT lankle
			{
				OFFSET -0.014790 -0.426874 -0.037428
				CHANNELS 3 Zrotation Yrotation Xrotation
				JOINT ltoe
				{
					OFFSET 0.041054 -0.060286 0.122042
					CHANNELS 3 Zrotation Yrotation Xrotation
					End Site
					{
						OFFSET 0.000000 0.000000 0.000000
					}
				}
			}
		}
	}
	JOINT rhip
	{
		OFFSET -0.060310 -0.090513 -0.013543
		CHANNELS 3 Zrotation Yrotation Xrotation
		JOINT rknee
		{
			OFFSET -0.043257 -0.383688 -0.004843
			CHANNELS 3 Zrotation Yrotation Xrotation
			JOINT rankle
			{
				OFFSET 0.019056 -0.420046 -0.034562
				CHANNELS 3 Zrotation Yrotation Xrotation
				JOINT rtoe
				{
					OFFSET -0.034840 -0.062106 0.130323
					CHANNELS 3 Zrotation Yrotation Xrotation
					End Site
					{
						OFFSET 0.000000 0.000000 0.000000
					}
				}
			}
		}
	}
	JOINT lowerback
	{
		OFFSET 0.004439 0.124404 -0.038385
		CHANNELS 3 Zrotation Yrotation Xrotation
		JOINT upperback
		{
			OFFSET 0.004488 0.137956 0.026820
			CHANNELS 3 Zrotation Yrotation Xrotation
			JOINT chest
			{
				OFFSET -0.002265 0.056032 0.002855
				CHANNELS 3 Zrotation Yrotation Xrotation
				JOINT lowerneck
				{
					OFFSET -0.013390 0.211636 -0.033468
					CHANNELS 3 Zrotation Yrotation Xrotation
					JOINT upperneck
					{
						OFFSET 0.010113 0.088937 0.050410
						CHANNELS 3 Zrotation Yrotation Xrotation
						End Site
						{
							OFFSET 0.000000 0.000000 0.000000
						}
					}
				}
				JOINT lclavicle
				{
					OFFSET 0.071702 0.114000 -0.018898
					CHANNELS 3 Zrotation Yrotation Xrotation
					JOINT lshoulder
					{
						OFFSET 0.122921 0.045205 -0.019046
						CHANNELS 3 Zrotation Yrotation Xrotation
						JOINT lelbow
						{
							OFFSET 0.255332 -0.015649 -0.022946
							CHANNELS 3 Zrotation Yrotation Xrotation
							JOINT lwrist
							{
								OFFSET 0.265709 0.012698 -0.007375
								CHANNELS 3 Zrotation Yrotation Xrotation
								End Site
								{
									OFFSET 0.000000 0.000000 0.000000
								}
							}
						}
					}
				}
				JOINT rclavicle
				{
					OFFSET -0.082954 0.112472 -0.023707
					CHANNELS 3 Zrotation Yrotation Xrotation
					JOINT rshoulder
					{
						OFFSET -0.113228 0.046853 -0.008472
						CHANNELS 3 Zrotation Yrotation Xrotation
						JOINT relbow
						{
							OFFSET -0.260127 -0.014369 -0.031269
							CHANNELS 3 Zrotation Yrotation Xrotation
							JOINT rwrist
							{
								OFFSET -0.269108 0.006794 -0.006027
								CHANNELS 3 Zrotation Yrotation Xrotation
								End Site
								{
									OFFSET 0.000000 0.000000 0.000000
								}
							}
						}
					}
				}
			}
		}
	}
}
MOTION
Frames: 5
Frame Time: 0.033333
1.784782 0.755284 0.881941 -85.979915 2.535638 96.929320 3.452624 -8.821320 -32.213802 -11.610387 -5.096841 52.499970 6.576035 14.584469 -38.526193 0.000000 -0.000000 0.000000 2.001635 5.284613 -33.901816 2.288720 -3.451919 54.846421 2.231184 -11.778148 -35.952672 0.000000 -0.000000 0.000000 -0.768014 1.216228 23.923411 2.601212 -0.839648 -2.634550 1.401414 -1.525479 4.695438 1.349984 7.923388 -18.317268 1.465575 0.678844 -13.595144 -24.536755 -0.390319 2.685714 -56.509698 -2.353223 8.642143 9.308346 -22.482234 6.276562 -0.979669 -2.367414 -13.329367 22.871057 -0.391886 2.041605 57.906427 -1.567023 10.062428 -12.260942 18.921423 2.211009 9.484715 1.245937 -9.536251 
1.772542 0.755737 0.867919 -86.535892 2.292986 95.943953 3.083489 -8.728327 -32.095036 -11.891284 -3.910918 56.365041 6.729746 14.977099 -40.172879 0.000000 -0.000000 0.000000 1.993933 5.934600 -33.550018 2.058884 -3.512380 58.497196 2.251930 -12.151815 -38.199810 0.000000 -0.000000 0.000000 -0.983317 1.097456 24.861952 2.378219 -0.874046 -2.923344 1.183253 -1.378437 4.675985 1.482778 7.979383 -18.256149 1.341173 0.489872 -13.061751 -24.966896 -1.336049 2.769447 -56.497687 -2.394323 8.664125 9.278299 -22.497000 6.542947 0.232555 -2.518366 -12.555843 23.377767 1.295142 2.165702 57.768766 -1.065538 10.667644 -11.956361 19.752901 3.052062 7.489429 1.913151 -8.333524 
1.755717 0.755738 0.860015 -87.462733 1.909282 94.859084 2.002234 -8.754550 -30.250618 -11.874119 -3.752540 58.386754 6.524144 15.847831 -41.783894 0.000000 -0.000000 0.000000 2.749548 6.410537 -32.148132 1.697777 -2.008752 60.972198 2.773478 -12.983462 -39.759323 0.000000 -0.000000 0.000000 -1.396369 1.202887 24.862850 2.210044 -0.713008 -3.427010 0.807061 -1.541170 4.941073 1.677188 8.095243 -18.101044 0.819869 0.346402 -12.434748 -25.251996 -0.726243 2.153401 -55.755613 -2.063779 8.931079 7.959285 -24.885390 8.831349 -0.711143 -2.595085 -11.673980 23.756885 0.689975 1.055713 57.203483 -0.661535 11.693229 -11.585923 24.058323 4.515483 8.686443 1.769434 -8.291822 
1.734542 0.755441 0.863223 -88.465409 1.834245 93.691785 0.830030 -8.241163 -26.225401 -11.458927 -4.707865 57.512299 5.853752 16.250925 -42.700458 0.000000 -0.000000 0.000000 3.795858 7.024391 -28.350350 1.259762 -0.830341 59.766318 2.838414 -13.866552 -40.166911 0.000000 -0.000000 0.000000 -1.447379 1.012351 23.673990 1.843546 -0.651961 -3.296923 0.466569 -1.311479 5.096821 2.118190 8.298675 -17.891115 0.269276 0.514566 -11.577728 -25.111821 0.043339 2.005929 -55.324219 -1.363528 8.857134 6.726731 -28.636893 10.611527 -1.049839 -3.502016 -11.034684 23.230922 0.397593 0.376872 57.427935 -1.385718 12.643337 -11.824477 30.019620 5.425610 8.497754 2.558535 -8.902861 
1.708695 0.754511 0.881606 -89.653548 1.946587 92.870446 -0.062506 -7.421278 -20.292868 -10.405700 -6.048521 52.662061 5.226617 16.403118 -40.853110 0.000000 -0.000000 0.000000 5.050157 6.467625 -22.805078 0.746296 0.908822 54.836716 2.713017 -13.810179 -38.270037 0.000000 -0.000000 0.000000 -1.269955 1.126522 21.087306 1.469837 -0.607687 -2.851616 0.332821 -1.242580 5.052844 2.384979 8.247621 -16.779541 -0.034474 1.560055 -10.642529 -24.578131 0.734466 2.383198 -55.655018 -0.315545 8.900988 5.859113 -31.882581 11.260427 1.171452 -4.449848 -11.039645 22.038207 0.172610 0.483350 57.904950 -2.618779 13.440059 -12.274238 36.418849 5.430842 6.651898 3.309987 -10.186443 
